Coordinates
nRows=9
nColumns=38

# SIMM Motion File Header:
name Coordinates
datacolumns 38
datarows 9
otherdata 1
range 0.81850000000000001000 0.82650000000000001000

Units are S.I. units (second, meters, Newtons, ...)
Angles are in degrees.

endheader
time	pelvis_tilt	pelvis_list	pelvis_rotation	pelvis_tx	pelvis_ty	pelvis_tz	hip_flexion_r	hip_adduction_r	hip_rotation_r	knee_angle_r	ankle_angle_r	subtalar_angle_r	mtp_angle_r	hip_flexion_l	hip_adduction_l	hip_rotation_l	knee_angle_l	ankle_angle_l	subtalar_angle_l	mtp_angle_l	lumbar_extension	lumbar_bending	lumbar_rotation	arm_flex_r	arm_add_r	arm_rot_r	elbow_flex_r	pro_sup_r	wrist_flex_r	wrist_dev_r	arm_flex_l	arm_add_l	arm_rot_l	elbow_flex_l	pro_sup_l	wrist_flex_l	wrist_dev_l
      0.81850000000000001000	     -3.45498611722116870000	     -4.20718550967085390000	     -2.76540538570797970000	      1.12676477714799650000	      0.95038118151279027000	     -0.35103807792556690000	      8.64400932140177500000	      9.55519064752536980000	      3.71927017963061560000	    -41.98131476983830600000	     25.05328011356711600000	      0.00000000000000127097	     -0.00000000000001009047	     30.44414950164644300000	      1.96656364994151130000	     -0.49933747423924907000	   -102.42791581636966000000	      5.56664498995923380000	     -0.00000000000000327959	      0.00000000000000065531	    -16.71261517071989600000	      8.89369628660174700000	     15.28358621991637800000	    -13.14444990146087600000	    -17.88878492943445100000	     -9.40150653770963630000	    131.16717533923642000000	     94.93724204785188200000	     -0.00000000000000046187	     -0.00000000000000158935	    -34.53717708132053600000	    -18.63568931807627700000	      0.73489241938886352000	    110.56296732154345000000	     90.78960807180290300000	     -0.00000000000000051715	      0.00000000000000630490
      0.81950000000000001000	     -3.48972625242709220000	     -4.11281064475146340000	     -2.75531111441281460000	      1.12696891131795680000	      0.95096767575908225000	     -0.35092965725060216000	      8.27252425608768680000	      9.43784439931155990000	      3.83545362301375190000	    -41.67408675907167000000	     24.83922034148256600000	      0.00000000000000136279	     -0.00000000000001032323	     30.73956937650436700000	      2.05522470994938060000	     -0.47606781078509214000	   -102.13867375417901000000	      5.77041168364381020000	     -0.00000000000000332359	      0.00000000000000054782	    -16.64548805147954300000	      8.76361187144071960000	     15.37711466969207000000	    -13.05686803417466100000	    -17.82869301362573100000	     -9.41241353943186350000	    131.41698967052457000000	     95.03796742247449500000	     -0.00000000000000045855	     -0.00000000000000160525	    -34.83383070172306600000	    -18.69354747895199900000	      0.59873565063862044000	    110.84036673817262000000	     90.75509492861873200000	     -0.00000000000000053089	      0.00000000000000640232
      0.82050000000000001000	     -3.52437584261349900000	     -4.01715235379555850000	     -2.74644300899007020000	      1.12717938191020490000	      0.95156283408461451000	     -0.35082062951419618000	      7.89896971411329040000	      9.31763636741751180000	      3.95045345420903170000	    -41.36270553012678200000	     24.61501741218419100000	      0.00000000000000144219	     -0.00000000000001052937	     31.03067844145943600000	      2.14389724277736170000	     -0.45608595237164629000	   -101.84202031549910000000	      5.97500169646879980000	     -0.00000000000000336625	      0.00000000000000044387	    -16.57817845131635800000	      8.63164923124084280000	     15.46949468521727900000	    -12.96986942629762200000	    -17.77119817439239900000	     -9.41864829959295410000	    131.66559608572740000000	     95.13850196570642500000	     -0.00000000000000045481	     -0.00000000000000162136	    -35.13206331218192000000	    -18.74939591459215600000	      0.45986286520538538000	    111.11764211922734000000	     90.72510590032131000000	     -0.00000000000000054432	      0.00000000000000649676
      0.82150000000000001000	     -3.55896281702070950000	     -3.92018714149290480000	     -2.73874723795386690000	      1.12739613157960620000	      0.95216632792211420000	     -0.35071114511255036000	      7.52346721400864290000	      9.19452077434891100000	      4.06415760378553510000	    -41.04723900063584800000	     24.38068039140586100000	      0.00000000000000154891	     -0.00000000000001071945	     31.31749805395368100000	      2.23264351336938920000	     -0.43934194563568846000	   -101.53798387820738000000	      6.18007122900668810000	     -0.00000000000000340671	      0.00000000000000033107	    -16.51065080330228000000	      8.49781188972162660000	     15.56069229468407000000	    -12.88354925286977200000	    -17.71629722109206300000	     -9.42025236628152380000	    131.91298611074777000000	     95.23885225364486500000	     -0.00000000000000045001	     -0.00000000000000163845	    -35.43179682672376900000	    -18.80320548363723500000	      0.31836854439173068000	    111.39467634585334000000	     90.69937707443322900000	     -0.00000000000000055787	      0.00000000000000659759
      0.82250000000000001000	     -3.59351204530586620000	     -3.82188844012261120000	     -2.73216930927060190000	      1.12761909950939910000	      0.95277783153572781000	     -0.35060135869578235000	      7.14613831574086240000	      9.06845384237085030000	      4.17646364588721040000	    -40.72775693953794000000	     24.13622951288635600000	      0.00000000000000165161	     -0.00000000000001091251	     31.60004585006363000000	      2.32153609560903720000	     -0.42578203668778714000	   -101.22658640384563000000	      6.38526027617250950000	     -0.00000000000000344590	      0.00000000000000022632	    -16.44287324768430400000	      8.36210001590935190000	     15.65067201470796700000	    -12.79799865068845000000	    -17.66398689743171600000	     -9.41726890941021470000	    132.15915418198585000000	     95.33902739022308000000	     -0.00000000000000044468	     -0.00000000000000165633	    -35.73295429245448000000	    -18.85494769065416100000	      0.17434875501509323000	    111.67136023688705000000	     90.67763824831986600000	     -0.00000000000000057125	      0.00000000000000668522
      0.82350000000000001000	     -3.62804513346153180000	     -3.72222688943043690000	     -2.72665419057866560000	      1.12784822148913900000	      0.95339702257721604000	     -0.35049142840655811000	      6.76710420017978720000	      8.93939389011693560000	      4.28727787404368680000	    -40.40433086755943700000	     23.88169587712823700000	      0.00000000000000175254	     -0.00000000000001114101	     31.87833550223919200000	      2.41065714593470880000	     -0.41534850225313963000	   -100.90784373682121000000	      6.59019492915302240000	     -0.00000000000000348372	      0.00000000000000012053	    -16.37481793558267600000	      8.22451058832808180000	     15.73939700557390400000	    -12.71330434175553300000	    -17.61426395700172200000	     -9.40974243690927810000	    132.40409721717731000000	     95.43903808845954000000	     -0.00000000000000044025	     -0.00000000000000167436	    -36.03545987551699900000	    -18.90459461908701800000	      0.02790074809089634200	    111.94759226130894000000	     90.65961461892902700000	     -0.00000000000000058361	      0.00000000000000676517
      0.82450000000000001000	     -3.66258031103933670000	     -3.62117065971731120000	     -2.72214643326651950000	      1.12808342998104980000	      0.95402358246869845000	     -0.35038151506123505000	      6.38648535760638940000	      8.80730146211085520000	      4.39651429101680070000	    -40.07703399000860100000	     23.61712111239971200000	      0.00000000000000187748	     -0.00000000000001138259	     32.15237659569398000000	      2.50009759196722880000	     -0.40797945896510390000	   -100.58176595755059000000	      6.79448979545977850000	     -0.00000000000000351982	      0.00000000000000001181	    -16.30646122712975200000	      8.08503760862061680000	     15.82682924597153500000	    -12.62954832502439800000	    -17.56712521210361500000	     -9.39771853556265140000	    132.64781420885848000000	     95.53889571098319800000	     -0.00000000000000043660	     -0.00000000000000169316	    -36.33923884668659800000	    -18.95211888108750700000	     -0.12087743274099522000	    112.22327823023333000000	     90.64502843673730600000	     -0.00000000000000059569	      0.00000000000000684051
      0.82550000000000001000	     -3.69713179256270140000	     -3.51868573765836020000	     -2.71859026284307910000	      1.12832465461098950000	      0.95465719771905377000	     -0.35027178138491483000	      6.00440055569309190000	      8.67213937531548670000	      4.50409362009705210000	    -39.74594090205508900000	     23.34255700631351600000	      0.00000000000000203371	     -0.00000000000001156525	     32.42217386486975500000	      2.58995638989463610000	     -0.40360868548160683000	   -100.24835760568159000000	      6.99775050182715310000	     -0.00000000000000355673	     -0.00000000000000011553	    -16.23778444643342700000	      7.94367224445676890000	     15.91292969225660400000	    -12.54680749912610700000	    -17.52256759286311200000	     -9.38124361178770630000	    132.89030586413105000000	     95.63861127783243900000	     -0.00000000000000043334	     -0.00000000000000171155	    -36.64421751895562100000	    -18.99749356650760400000	     -0.27188733558458883000	    112.49833102910449000000	     90.63360063688531900000	     -0.00000000000000060777	      0.00000000000000690501
      0.82650000000000001000	     -3.73170802381546050000	     -3.41473614951082460000	     -2.71592972747701470000	      1.12857182343875610000	      0.95529756330007953000	     -0.35016239115786540000	      5.62096471726502410000	      8.53387266053301200000	      4.60994242990026140000	    -39.41112689121726500000	     23.05806519398485900000	      0.00000000000000221220	     -0.00000000000001171654	     32.68772507041663300000	      2.68033983501471160000	     -0.40216557184799689000	    -99.90761761932455400000	      7.19957637093675910000	     -0.00000000000000359433	     -0.00000000000000025661	    -16.16877585279429800000	      7.80040280959971000000	     15.99765853648399100000	    -12.46515310905187900000	    -17.48058824823862900000	     -9.36036463419608820000	    133.13157433969292000000	     95.73819439852559300000	     -0.00000000000000043112	     -0.00000000000000172972	    -36.95032306081653700000	    -19.04069217046842200000	     -0.42503045609928125000	    112.77267042008917000000	     90.62505242918054200000	     -0.00000000000000062003	      0.00000000000000696669
